#!OML:ASF E:/inclinewalkrobotboard/Project1/Captureday1/Session1/subject1.ASF
:FULLY-SPECIFIED
:DEGREES
51
root 0 0 0 0.5722788097443541 22.288795179507407 11.72705426146929
lowerback -5.690385052603884 -5.202055347477465 -7.2049938123206685
upperback -8.922168699926317 -6.539999085670533 6.583102569977642
thorax -6.096983087081677 -2.11146281068629 11.08334908533488
lowerneck -4.279710523081383 -7.9842216356665645 -6.171117098375878
upperneck 31.93978226373438 -10.122680479433871 0.651673915358792
head 11.58065000111926 -5.226457903914595 -0.0803044349716806
rclavicle -2.85241173956823E-15 4.446157085240699E-15
rhumerus 141.31012690867814 9.859491222502577 -188.59818711683948
rradius 27.491832072804904
rwrist 49.61910385462723
rhand -17.718785871826498 12.174689642594426
rfingers 7.125019999999966
rthumb 8.589888238425363 -17.525907778830177
lclavicle 4.413004707809513E-15 1.0307366074897265E-15
lhumerus 72.7681246299106 16.4022850385533 39.28729532440786
lradius 49.95618545122923
lwrist -0.05330549353430314
lhand 7.240091234707743 16.10781784705523
lfingers 7.125019999999964
lthumb 32.37964628333874 41.99529432290795
rfemur 170.8131641020089 -222.1071981168446 -187.5551964941813
rtibia 58.22438977468618
rfoot -72.41246905672799 -2.889469357416054
rtoes 42.07811394412255
lfemur -86.10683767448205 19.252467098954643 -61.938726437553456
ltibia 69.20769481080481
lfoot -0.8323583642895827 36.8935725873422
ltoes 4.254681330292868
52
root 0 0 0 0.8586068702312986 22.396637097764053 11.694902123731433
lowerback -5.879586187301881 -5.150804468324218 -7.298768941397489
upperback -8.976894067553292 -6.475257025826118 6.569607329895435
thorax -6.0583037827760045 -2.0779460702843027 11.129009028491176
lowerneck -4.269473956841681 -7.912270339478589 -6.132406417836063
upperneck 31.790107266611415 -10.014429851199214 0.6468526389594111
head 11.516853718779519 -5.1743317111291685 -0.07783514902424504
rclavicle -3.261438715732617E-15 4.221656434438851E-15
rhumerus 138.2491612511114 9.596215119148486 -192.62868182551884
rradius 25.615189252111815
rwrist 50.0717458074843
rhand -18.767483645618082 12.855076862299667
rfingers 7.125019999999967
rthumb 7.599172204873348 -17.049493166178383
lclavicle 4.215777134135795E-15 2.0010426495398284E-15
lhumerus 72.45805576313818 15.175043334885853 39.87841579023196
lradius 49.469444895603594
lwrist 1.2188787705554684
lhand 10.441105539712444 16.966170252870803
lfingers 7.125019999999962
lthumb 35.42855131106373 42.35658288488018
rfemur 172.35343166758213 -223.2620449082566 -188.6574414745139
rtibia 59.599501894892526
rfoot -70.98488006783305 -1.5785683020867616
rtoes 41.68681722891111
lfemur -86.25562570394567 19.50087907515161 -61.6296221891524
ltibia 69.65807548538821
lfoot -1.5067678650210148 36.80468129006644
ltoes 4.583012555826835
53
root 0 0 0 1.0779406231121875 22.178275654778968 11.852589268265545
lowerback -6.104965940028121 -5.102922204975753 -7.493751985074981
upperback -9.050127746357681 -6.41903286015454 6.525076917752331
thorax -6.034694480164445 -2.0379704659078985 11.201922783295876
lowerneck -4.2420799883642255 -7.778242557258203 -6.050218150182861
upperneck 31.567717834033438 -9.824577459599713 0.6762321378902634
head 11.4178253813894 -5.080937454310864 -0.06388382419436511
rclavicle -3.617333733587517E-15 3.764343732195243E-15
rhumerus 137.21811715290886 9.22409092815861 -195.49588313707383
rradius 23.667601981915126
rwrist 51.606240522167866
rhand -19.005556232570388 12.792713444555826
rfingers 7.125019999999969
rthumb 7.369585045293249 -17.190206595065536
lclavicle 4.016537758284947E-15 3.108709941332875E-15
lhumerus 71.96844707342784 14.365724984689907 40.54833468789523
lradius 47.99232134225014
lwrist 2.314565832665531
lhand 13.80815796261207 18.351132770475587
lfingers 7.125019999999962
lthumb 38.64252329417196 43.265509632032426
rfemur 173.22535775203704 -223.88024453920417 -189.29448854097973
rtibia 60.184452956612674
rfoot -70.39278159007885 -0.5327991417710187
rtoes 41.530048473952405
lfemur -86.12054695749177 19.52974680479717 -61.54134867870568
ltibia 70.07438001440309
lfoot -1.899481367148848 36.64745600270457
ltoes 4.518459437331684
54
root 0 0 0 1.3568076608019588 21.22531617623905 12.385767482006907
lowerback -6.487675880175098 -5.028411493004201 -7.965212820136802
upperback -9.210930935417155 -6.340253924350346 6.381540051259655
thorax -6.0585594196691295 -1.9630295609408244 11.334846791999276
lowerneck -4.182657463198561 -7.430022513729153 -5.824043898212142
upperneck 31.04977302367591 -9.34979958886157 0.7874658334301836
head 11.190283759888759 -4.843969854553362 -0.02109061926160627
rclavicle -4.038748197817133E-15 2.8320175300852343E-15
rhumerus 137.79259116660268 8.569064762305686 -198.86474126213776
rradius 20.764959306621027
rwrist 55.69369679622815
rhand -19.00052035660287 12.282464908950129
rfingers 7.125019999999972
rthumb 7.368114336707404 -17.76259441702509
lclavicle 2.3638091233406226E-15 4.877048487313648E-15
lhumerus 68.99692478558288 12.86648856053082 41.045156260013236
lradius 44.11279044681729
lwrist 3.3090704086143905
lhand 19.22251746977784 21.609769912971203
lfingers 7.125019999999967
lthumb 43.8161594112138 45.799508197553195
rfemur 174.1538760910404 -224.44979533505466 -189.98873311346586
rtibia 60.23702017598816
rfoot -70.43494871722841 1.2650057360124656
rtoes 41.49299598690929
lfemur -85.38152792582781 19.09689864072922 -61.89989512350907
ltibia 70.2269659888122
lfoot -1.6582893092002422 36.37003161574761
ltoes 3.595287330056875
